<?xml version="1.0" encoding="UTF-8" standalone="no"?>
<svg width="100%" height="100%" viewBox="0 0 1000 1001" version="1.1" xmlns="http://www.w3.org/2000/svg"
     xml:space="preserve"
     style="fill-rule:evenodd;clip-rule:evenodd;stroke-linejoin:round;stroke-miterlimit:2;">
    <g transform="matrix(1,0,0,1,0,-3)">
        <g id="ef2b5f" transform="matrix(1,0,0,1,0,3.12819)">
            <rect x="0" y="0" width="1000" height="1000" style="fill:rgb(239,43,95);"/>
            <g transform="matrix(1.16043,0,0,1.16043,-73.9552,-70.0789)">
                <g transform="matrix(1.09238,0,0,1.09159,683.406,416.259)">
                    <path d="M0,257.507L-77.185,331.957C-77.799,332.571 -78.357,333.185 -78.804,333.855C-80.478,335.417 -82.208,336.98 -83.994,338.487C-149.571,394.911 -247.963,390.279 -308.015,327.939C-368.736,264.93 -370.354,173.29 -311.81,110.058C-311.643,109.89 -311.475,109.723 -311.363,109.499C-311.307,109.499 -311.251,109.444 -311.196,109.387C-309.8,107.881 -308.349,106.374 -306.842,104.867C-306.285,104.532 -305.726,104.086 -305.168,103.584L-259.683,60.889L-234.345,37.114L-178.759,-15.013L-156.658,-35.718L-88.85,-99.341C-74.116,-113.517 -49.838,-119.991 -33.821,-104.029C-26.063,-96.271 -24.446,-86.728 -24.501,-80.086C-24.612,-67.529 -30.417,-54.525 -40.016,-45.317L-137.349,48.555C-137.819,48.972 -138.131,49.351 -138.445,49.808L-232.544,137.396C-237.155,141.687 -237.417,148.906 -233.122,153.517C-230.876,155.932 -227.824,157.152 -224.772,157.152C-221.987,157.152 -219.197,156.141 -217,154.095L-129.875,72.999L-129.87,73L-129.813,73C-125.835,69.721 -125.614,69.538 -123.828,69.147C-113.559,66.971 -103.807,73.837 -96.495,81.427C-87.231,91.027 -84.668,106.466 -91.309,118.018C-91.979,119.19 -92.618,120.076 -93.874,121.108L-93.874,121.11L-175.317,197.168C-179.928,201.457 -180.19,208.679 -175.895,213.289C-173.649,215.704 -170.603,216.924 -167.545,216.924C-164.76,216.924 -161.97,215.911 -159.773,213.867L-79.114,138.799L-79.083,138.799C-76.997,137.101 -75.999,136.445 -74.938,136.166C-64.445,133.264 -54.191,138.353 -46.546,145.999C-36.556,159.282 -35.216,171.895 -42.584,183.559C-42.695,183.782 -42.862,184.005 -42.974,184.229L-43.029,184.34C-43.031,184.344 -43.032,184.349 -43.034,184.352L-121.546,261.436C-126.042,265.851 -126.107,273.078 -121.698,277.569C-119.464,279.847 -116.51,280.986 -113.556,280.986C-110.673,280.986 -107.784,279.902 -105.566,277.721L-34.901,208.289C-30.016,204.003 -25.124,203.613 -20.027,204.267C-12.001,205.296 -4.968,208.841 0.781,214.812C6.362,220.617 9.375,228.263 9.264,236.299C9.096,244.392 5.804,251.926 0,257.507M-220.784,-116.642L-219.333,-116.642C-198.907,-116.642 -181.94,-100.401 -181.158,-79.807L-179.875,-45.261L-253.823,24.166L-257.562,-76.961C-258.4,-98.057 -241.88,-115.861 -220.784,-116.642M17.189,198.963C7.925,189.363 -4.354,183.726 -17.302,182.89C-13.284,169.997 -13.172,151.971 -28.854,131.544C-29.133,131.209 -29.356,130.875 -29.691,130.596C-39.514,120.382 -52.852,114.689 -66.693,114.411C-62.73,97.221 -67.475,78.692 -80.087,65.577C-87.454,57.931 -96.663,52.852 -106.597,50.62L-24.166,-28.853C-10.27,-42.304 -1.898,-61.335 -1.73,-79.864C-1.563,-95.434 -7.256,-109.722 -17.748,-120.214C-40.797,-143.208 -78.134,-141.31 -104.587,-115.861L-157.775,-65.967L-158.333,-80.701C-158.946,-96.997 -165.867,-112.066 -177.811,-123.171C-189.809,-134.278 -205.269,-140.026 -221.62,-139.412C-237.918,-138.798 -253.042,-131.878 -264.148,-119.935C-275.198,-107.991 -281.003,-92.421 -280.389,-76.124L-275.868,44.816L-319.121,85.389C-319.791,85.78 -320.46,86.283 -321.074,86.896C-323.306,89.073 -325.539,91.306 -327.659,93.594L-328.162,94.04C-328.609,94.486 -329.054,94.989 -329.446,95.547C-395.581,167.876 -393.571,272.13 -324.423,343.789C-288.035,381.572 -239.257,400.715 -190.368,400.715C-147.283,400.715 -104.03,385.87 -69.037,355.732C-66.358,353.444 -63.735,351.045 -61.167,348.589C-60.554,347.974 -59.996,347.305 -59.549,346.635L15.85,273.971C36.89,253.656 37.504,220.003 17.189,198.963"
                          style="fill:white;fill-rule:nonzero;stroke:white;stroke-width:4.93px;"/>
                </g>
                <g transform="matrix(1.09238,0,0,1.09159,537.039,128.86)">
                    <path d="M0,98.117C6.3,98.117 11.407,93.01 11.407,86.71L11.407,11.408C11.407,5.107 6.3,0 0,0C-6.3,0 -11.407,5.107 -11.407,11.408L-11.407,86.71C-11.407,93.01 -6.3,98.117 0,98.117"
                          style="fill:white;fill-rule:nonzero;stroke:white;stroke-width:4.93px;"/>
                </g>
                <g transform="matrix(1.09238,0,0,1.09159,581.859,160.003)">
                    <path d="M0,69.506C3.287,69.506 6.557,68.089 8.808,65.353L46.125,20.059C50.131,15.198 49.439,8.006 44.577,4C39.716,0 32.521,0.686 28.521,5.551L-8.796,50.844C-12.802,55.706 -12.11,62.898 -7.249,66.903C-5.123,68.653 -2.556,69.506 0,69.506"
                          style="fill:white;fill-rule:nonzero;stroke:white;stroke-width:4.93px;"/>
                </g>
                <g transform="matrix(1.09238,0,0,1.09159,476.651,168.098)">
                    <path d="M0,58.168C2.251,60.762 5.423,62.089 8.611,62.089C11.266,62.089 13.931,61.168 16.089,59.291C20.847,55.157 21.348,47.951 17.212,43.196L-19.19,1.336C-23.316,-3.416 -30.526,-3.921 -35.279,0.213C-40.037,4.347 -40.538,11.553 -36.402,16.308L0,58.168Z"
                          style="fill:white;fill-rule:nonzero;stroke:white;stroke-width:4.93px;"/>
                </g>
            </g>
        </g>
    </g>
</svg>
